<svg width="26" height="26" viewBox="0 0 26 26" fill="none" xmlns="http://www.w3.org/2000/svg">
<path d="M25.9594 19.2359L24.6035 11.1109C24.4715 10.3289 23.7961 9.75508 22.9988 9.75508H10.5676V6.50508H15.4426C15.8895 6.50508 16.2551 6.13945 16.2551 5.69258V0.8125C16.2551 0.365625 15.8895 0 15.4426 0H2.44258C1.9957 0 1.63008 0.365625 1.63008 0.8125V5.6875C1.63008 6.13438 1.9957 6.5 2.44258 6.5H7.31758V9.75H3.00625C2.21406 9.75 1.53359 10.3238 1.40156 11.1059L0.0457031 19.2309C0.0152344 19.4086 0 19.5863 0 19.7641V24.375C0 25.2738 0.726172 26 1.625 26H24.375C25.2738 26 26 25.2738 26 24.375V19.7691C26.0051 19.5914 25.9898 19.4137 25.9594 19.2359ZM14.2238 12.5938C14.2238 12.1469 14.5895 11.7812 15.0363 11.7812H15.8488C16.2957 11.7812 16.6613 12.1469 16.6613 12.5938V13.4062C16.6613 13.8531 16.2957 14.2188 15.8488 14.2188H15.0363C14.5895 14.2188 14.2238 13.8531 14.2238 13.4062V12.5938ZM12.5988 15.8438H13.4113C13.8582 15.8438 14.2238 16.2094 14.2238 16.6562V17.4688C14.2238 17.9156 13.8582 18.2812 13.4113 18.2812H12.5988C12.152 18.2812 11.7863 17.9156 11.7863 17.4688V16.6562C11.7863 16.2094 12.152 15.8438 12.5988 15.8438ZM10.9738 11.7812C11.4207 11.7812 11.7863 12.1469 11.7863 12.5938V13.4062C11.7863 13.8531 11.4207 14.2188 10.9738 14.2188H10.1613C9.71445 14.2188 9.34883 13.8531 9.34883 13.4062V12.5938C9.34883 12.1469 9.71445 11.7812 10.1613 11.7812H10.9738ZM4.06758 4.0625V2.4375H13.8176V4.0625H4.06758ZM6.09883 14.2188H5.28633C4.83945 14.2188 4.47383 13.8531 4.47383 13.4062V12.5938C4.47383 12.1469 4.83945 11.7812 5.28633 11.7812H6.09883C6.5457 11.7812 6.91133 12.1469 6.91133 12.5938V13.4062C6.91133 13.8531 6.5457 14.2188 6.09883 14.2188ZM6.91133 17.4688V16.6562C6.91133 16.2094 7.27695 15.8438 7.72383 15.8438H8.53633C8.9832 15.8438 9.34883 16.2094 9.34883 16.6562V17.4688C9.34883 17.9156 8.9832 18.2812 8.53633 18.2812H7.72383C7.27695 18.2812 6.91133 17.9156 6.91133 17.4688ZM17.8801 23.1562C17.8801 23.3797 17.6973 23.5625 17.4738 23.5625H8.53633C8.31289 23.5625 8.13008 23.3797 8.13008 23.1562V22.3438C8.13008 22.1203 8.31289 21.9375 8.53633 21.9375H17.4738C17.6973 21.9375 17.8801 22.1203 17.8801 22.3438V23.1562ZM19.0988 17.4688C19.0988 17.9156 18.7332 18.2812 18.2863 18.2812H17.4738C17.027 18.2812 16.6613 17.9156 16.6613 17.4688V16.6562C16.6613 16.2094 17.027 15.8438 17.4738 15.8438H18.2863C18.7332 15.8438 19.0988 16.2094 19.0988 16.6562V17.4688ZM21.5363 13.4062C21.5363 13.8531 21.1707 14.2188 20.7238 14.2188H19.9113C19.4645 14.2188 19.0988 13.8531 19.0988 13.4062V12.5938C19.0988 12.1469 19.4645 11.7812 19.9113 11.7812H20.7238C21.1707 11.7812 21.5363 12.1469 21.5363 12.5938V13.4062Z" fill="white"/>
</svg>
